<svg xmlns="http://www.w3.org/2000/svg" viewBox="0 0 36.712 31.816">
  <defs>
    <style>
      .cls-1 {
        fill: #8795a2;
      }

      .cls-2, .cls-3, .cls-5 {
        fill: #fff;
      }

      .cls-2, .cls-3 {
        stroke: #8795a2;
        stroke-miterlimit: 10;
      }

      .cls-2 {
        stroke-width: 1.5px;
      }

      .cls-4 {
        fill: #ff1e63;
      }

      .cls-5 {
        font-size: 9px;
        font-family: Montserrat-Regular, Montserrat;
      }
    </style>
  </defs>
  <g id="Group_12717" data-name="Group 12717" transform="translate(0 1.165)">
    <circle id="Ellipse_1268" data-name="Ellipse 1268" class="cls-1" cx="15.373" cy="15.373" r="15.373" transform="translate(0 -0.095)"/>
    <g id="icon-notification" transform="matrix(0.995, 0.105, -0.105, 0.995, 7.401, 3.626)">
      <path id="Path_13925" data-name="Path 13925" class="cls-2" d="M16.416,12.312h0a.238.238,0,0,1-.224-.224V7.313A7.325,7.325,0,0,0,8.88,0h0A7.325,7.325,0,0,0,1.567,7.313v4.776a.321.321,0,0,1-.3.3h0A1.308,1.308,0,0,0,0,13.655H0a1.308,1.308,0,0,0,1.269,1.269H16.342a1.308,1.308,0,0,0,1.269-1.269h0A1.219,1.219,0,0,0,16.416,12.312Z" transform="translate(0 2.686)"/>
      <path id="Path_13926" data-name="Path 13926" class="cls-3" d="M0,0H0A3.01,3.01,0,0,0,2.985,3.059,2.994,2.994,0,0,0,5.97.075V0Z" transform="translate(5.82 17.61)"/>
      <circle id="Ellipse_1301" data-name="Ellipse 1301" class="cls-3" cx="1.269" cy="1.269" r="1.269" transform="translate(7.537 0)"/>
    </g>
    <g id="Group_12714" data-name="Group 12714" transform="translate(22.273 -0.7)">
      <circle id="Ellipse_1302" data-name="Ellipse 1302" class="cls-4" cx="7.22" cy="7.22" r="7.22" transform="translate(0 -0.465)"/>
      <text id="_1" data-name="1" class="cls-5" transform="translate(5.757 10.535)"><tspan x="0" y="0">1</tspan></text>
    </g>
  </g>
</svg>
